<svg xmlns="http://www.w3.org/2000/svg" viewBox="0 0 295.81 73.73"><defs><style>.cls-1{fill:#ec2228;}.cls-2{fill:#1e1e1e;}</style></defs><title>Ativo 1</title><g id="Camada_2" data-name="Camada 2"><g id="logo_jrc_brasil_v2021_Imagem" data-name="logo_jrc_brasil_v2021 Imagem"><path class="cls-1" d="M68.87,73.72H7.46a7.4,7.4,0,0,1-4.82-1.86,6.92,6.92,0,0,1-2.45-4A7.89,7.89,0,0,1,0,66.41Q0,37,0,7.6A7.43,7.43,0,0,1,5.16.49,9.14,9.14,0,0,1,8.28,0Q69.06,0,129.85,0a7.6,7.6,0,0,1,7.2,4.44,6.09,6.09,0,0,1,.65,2.72q0,29.73,0,59.46A6.57,6.57,0,0,1,136,70.92a8.35,8.35,0,0,1-5,2.78,3.64,3.64,0,0,1-.66,0Zm0-4.78h60.93c.14,0,.28,0,.42,0a3,3,0,0,0,2.74-2.75q0-29.28,0-58.57a3.37,3.37,0,0,0-.06-.7c-.26-1.25-1.91-2.14-3.12-2.14H8.29a4.68,4.68,0,0,0-1.18.12A3,3,0,0,0,4.76,7.85q.06,29,0,58.08a3.26,3.26,0,0,0,3,3Q38.32,68.92,68.84,68.94Z"/><path class="cls-2" d="M180.81,34.85a12.29,12.29,0,0,1,2.7,1A10.32,10.32,0,0,1,189,42.06a11.4,11.4,0,0,1-.4,7.93,11.66,11.66,0,0,1-6.74,6.36A25.16,25.16,0,0,1,176,57.79a67.09,67.09,0,0,1-10.41.32c-1.81,0-3.61-.3-5.41-.45-.18,0-.25-.07-.24-.25s0-.24,0-.36V16.37c0-.41,0-.61.54-.69,1.24-.19,2.48-.33,3.73-.46a63.81,63.81,0,0,1,9.27-.33A20.15,20.15,0,0,1,182.69,17a9.4,9.4,0,0,1,5.14,7,9.13,9.13,0,0,1-1.85,7.2,11,11,0,0,1-4.69,3.38Zm-13,10.28c0,2.12,0,4.23,0,6.35,0,.47.18.67.57.66.66,0,1.3.12,1.95.12a25.71,25.71,0,0,0,2.91-.08,15.28,15.28,0,0,0,2.87-.52,7.15,7.15,0,0,0,4.07-2.8,6.63,6.63,0,0,0,1-4,6,6,0,0,0-3.65-5.4,14.22,14.22,0,0,0-5.61-1.19c-1.19-.08-2.39,0-3.59,0-.4,0-.5.11-.49.5C167.81,40.85,167.8,43,167.8,45.13Zm0-18.4c0,1.76,0,3.51,0,5.27,0,.38.07.51.48.5,1.16,0,2.32,0,3.48,0a10.79,10.79,0,0,0,4.36-.72,6.8,6.8,0,0,0,2.62-1.8,5.68,5.68,0,0,0,1.19-4.35,4.45,4.45,0,0,0-1.41-3,7.83,7.83,0,0,0-5.26-1.9,25,25,0,0,0-5,.2c-.4.06-.42.19-.42.5C167.81,23.21,167.8,25,167.8,26.73Z"/><path class="cls-2" d="M240,45c0,2.18-.05,4.36,0,6.54a34.78,34.78,0,0,0,.46,5.76c0,.23.07.45-.34.45-2.11,0-4.23,0-6.35,0a.41.41,0,0,1-.48-.38c-.13-.87-.24-1.74-.37-2.61,0-.12.09-.31-.11-.35s-.24.12-.32.23A8,8,0,0,1,230,56.81a10.3,10.3,0,0,1-4,1.45,14.72,14.72,0,0,1-2.64.23,9.77,9.77,0,0,1-7.29-3.22,8.53,8.53,0,0,1-2-4.2,10.7,10.7,0,0,1,.77-6.32,9.77,9.77,0,0,1,3.88-4.22A18.17,18.17,0,0,1,225,38.25a30,30,0,0,1,6.75-.59c.36,0,.41-.13.42-.45A4.84,4.84,0,0,0,227.56,32,15.35,15.35,0,0,0,218,34.05c-.27.16-.34.06-.41-.16-.47-1.53-.95-3.06-1.42-4.58-.06-.2,0-.31.22-.42A14.25,14.25,0,0,1,220,27.35a20.71,20.71,0,0,1,4.28-.87,24.73,24.73,0,0,1,3.54-.21,15.58,15.58,0,0,1,6.24,1.34,10.09,10.09,0,0,1,5.45,7.12,19,19,0,0,1,.5,5C240,41.49,240,43.27,240,45Zm-7.67.53c0-.9,0-1.66,0-2.42,0-.28-.08-.36-.37-.37a16.7,16.7,0,0,0-6.69,1A5,5,0,0,0,222,47.09a5.29,5.29,0,0,0-.07,2.44,3.69,3.69,0,0,0,2.54,3,5.56,5.56,0,0,0,3.08.11,6.09,6.09,0,0,0,4.59-3.92A9.19,9.19,0,0,0,232.35,45.57Z"/><path class="cls-2" d="M254.79,58.37a20.69,20.69,0,0,1-8.2-1.44c-1.3-.49-1.33-.6-.93-2s.74-2.64,1.09-4c.09-.36.17-.54.6-.29a17.09,17.09,0,0,0,5.51,1.9,9.12,9.12,0,0,0,4.22-.12,3.22,3.22,0,0,0,2.49-2.34A3.18,3.18,0,0,0,258,46.51a17.77,17.77,0,0,0-3.75-1.68,15.3,15.3,0,0,1-5.88-3.46,7.52,7.52,0,0,1-2.24-6.25A8.9,8.9,0,0,1,251,27.89a13.56,13.56,0,0,1,5.51-1.53,19.37,19.37,0,0,1,7.34.86c.64.2,1.26.49,1.88.75.16.07.33.13.24.42-.49,1.67-.94,3.35-1.4,5-.09.33-.27.25-.48.14a13.24,13.24,0,0,0-3.69-1.37,7.54,7.54,0,0,0-5,.26,2.83,2.83,0,0,0-.3,5.09,23.69,23.69,0,0,0,4.8,2.14,14.31,14.31,0,0,1,4.69,2.76,7.89,7.89,0,0,1,2.5,4.93A9.09,9.09,0,0,1,265.71,54a10.28,10.28,0,0,1-6.24,3.94A16.27,16.27,0,0,1,254.79,58.37Z"/><path class="cls-2" d="M295.8,35.39c0,7.25,0,14.51,0,21.76,0,.54-.14.65-.65.64-2.26,0-4.52,0-6.78,0-.38,0-.5-.08-.5-.48q0-21.93,0-43.87c0-.4.12-.49.5-.49q3.42,0,6.84,0c.45,0,.59.1.59.58C295.79,20.81,295.8,28.1,295.8,35.39Z"/><path class="cls-2" d="M202,32.8a18.87,18.87,0,0,1,1.4-2.58,9,9,0,0,1,5.81-3.83,8.34,8.34,0,0,1,2.82,0c.3,0,.36.18.36.44v7.05c-2.25-.38-4.41-.34-6.34,1a6.69,6.69,0,0,0-2.88,4.92c-.34,3-.09,6.09-.13,9.13,0,2.78,0,5.56,0,8.34,0,.42-.11.52-.52.52q-3.39,0-6.78,0c-.48,0-.63-.09-.62-.61,0-8,0-16,0-24q0-2.12-.12-4.23c0-.53-.08-1.06-.11-1.59,0-.29,0-.42.38-.42q3,0,6.06,0c.32,0,.41.09.4.4,0,1.13.12,2.26.14,3.39C201.91,31.43,202,32.12,202,32.8Z"/><path class="cls-2" d="M272.66,42.35c0-4.94,0-9.87,0-14.81,0-.48.13-.58.59-.57,2.28,0,4.55,0,6.83,0,.38,0,.5.08.5.48q0,14.93,0,29.85c0,.4-.12.49-.5.48-2.27,0-4.55,0-6.83,0-.46,0-.59-.1-.59-.58C272.67,52.26,272.66,47.3,272.66,42.35Z"/><path class="cls-2" d="M276.76,14.27a4,4,0,0,1,1.91.35,3.83,3.83,0,0,1,2.2,2.68,4.11,4.11,0,0,1-.56,3.57A4,4,0,0,1,277,22.66a4.8,4.8,0,0,1-3.35-1,3.77,3.77,0,0,1-1.31-2.19,4.29,4.29,0,0,1,.88-3.83A4,4,0,0,1,276,14.27C276.17,14.25,276.39,14.27,276.76,14.27Z"/><path class="cls-1" d="M87.3,56h-.78c-4,0-7.91,0-11.87,0a1.23,1.23,0,0,1-1.12-.54c-2.24-3-4.47-6-6.76-9Q65,44.18,63.34,41.89s-.11-.09-.26-.22v.72q0,6.51,0,13c0,.46-.1.59-.58.59-3,0-6,0-9,0-.44,0-.57-.09-.57-.55q0-18.94,0-37.88c0-.48.15-.54.58-.54,6.89,0,13.79,0,20.68,0a11.05,11.05,0,0,1,6.58,2.33,11.44,11.44,0,0,1,3.33,3.86,12.09,12.09,0,0,1,1.23,4,17.09,17.09,0,0,1,.09,3,11.68,11.68,0,0,1-2.61,7.19,11.36,11.36,0,0,1-4.84,3.42c-.61.23-.63.3-.29.82L85.4,53.26C86,54.13,86.61,55,87.3,56ZM67.46,25.4H63.75c-.22,0-.43,0-.43.32,0,2.43,0,4.87,0,7.3,0,.23.07.32.31.32,2.58-.07,5.18.16,7.76-.14a2.59,2.59,0,0,0,2-1.24,5.59,5.59,0,0,0,.65-3.55,3.12,3.12,0,0,0-3.41-3C69.58,25.42,68.52,25.4,67.46,25.4Z"/><path class="cls-1" d="M108.7,56.45a19.54,19.54,0,0,1-9.23-2,18.25,18.25,0,0,1-4.41-3.09,19.94,19.94,0,0,1-4.39-6,20.44,20.44,0,0,1-1.81-5.84,19.52,19.52,0,0,1-.19-4.38,20.35,20.35,0,0,1,2.81-8.91,19.44,19.44,0,0,1,3.2-4.13,19.06,19.06,0,0,1,8.59-4.7,23.34,23.34,0,0,1,7.39-.7,19.2,19.2,0,0,1,6.4,1.52,19.62,19.62,0,0,1,6.48,4.5c.88.92.91.93,0,1.78-1.84,1.75-3.7,3.49-5.57,5.2a10.68,10.68,0,0,0-1,1c-.28.33-.45.24-.7,0a10.69,10.69,0,0,0-4.64-2.87,8.63,8.63,0,0,0-8.14,1.5,9.28,9.28,0,0,0-3.58,5.23,8.39,8.39,0,0,0,.91,6.49,8.85,8.85,0,0,0,6,4.39,10,10,0,0,0,9.31-3c.29-.31.47-.44.91-.08,2.19,1.78,4.43,3.5,6.65,5.24l.6.47c.65.46.67.47.14,1a25,25,0,0,1-6.52,5.12,20.69,20.69,0,0,1-6.55,2.2A9,9,0,0,1,108.7,56.45Z"/><path class="cls-1" d="M34.55,29c0-3.92,0-7.83,0-11.75,0-.48.13-.58.59-.58q5,0,10,0c.45,0,.55.12.55.56,0,7.67,0,15.34,0,23a14.71,14.71,0,0,1-2.32,7.71,16.62,16.62,0,0,1-7.13,6.41,17.63,17.63,0,0,1-5.38,1.52A18.06,18.06,0,0,1,22,54.75a17.2,17.2,0,0,1-4.83-2.84,15.65,15.65,0,0,1-4.41-5.6,15.21,15.21,0,0,1-1.29-5c0-.47-.11-.94-.12-1.41,0-.28.08-.38.37-.38,3.2,0,6.4,0,9.6,0,.37,0,.38.26.42.43a9.29,9.29,0,0,0,1.71,3.75A5.5,5.5,0,0,0,27.78,46a6.51,6.51,0,0,0,5.38-2.16,4.83,4.83,0,0,0,1.4-3.38C34.54,36.66,34.55,32.82,34.55,29Z"/></g></g></svg>