<svg width="501" height="214" viewBox="0 0 501 214" fill="none" xmlns="http://www.w3.org/2000/svg">
<path d="M4.3816 204V177.4H15.5916C18.4289 177.4 20.9243 177.957 23.0776 179.072C25.2563 180.187 26.9409 181.745 28.1316 183.746C29.3476 185.747 29.9556 188.065 29.9556 190.7C29.9556 193.335 29.3476 195.653 28.1316 197.654C26.9409 199.655 25.2563 201.213 23.0776 202.328C20.9243 203.443 18.4289 204 15.5916 204H4.3816ZM8.1816 200.694H15.3636C17.5676 200.694 19.4676 200.276 21.0636 199.44C22.6849 198.604 23.9389 197.439 24.8256 195.944C25.7123 194.424 26.1556 192.676 26.1556 190.7C26.1556 188.699 25.7123 186.951 24.8256 185.456C23.9389 183.961 22.6849 182.796 21.0636 181.96C19.4676 181.124 17.5676 180.706 15.3636 180.706H8.1816V200.694ZM35.5261 204V177.4H39.3261V204H35.5261ZM59.0478 204.304C56.9958 204.304 55.1085 203.975 53.3858 203.316C51.6631 202.632 50.1685 201.682 48.9018 200.466C47.6351 199.225 46.6471 197.781 45.9378 196.134C45.2285 194.487 44.8738 192.676 44.8738 190.7C44.8738 188.724 45.2285 186.913 45.9378 185.266C46.6471 183.619 47.6351 182.188 48.9018 180.972C50.1938 179.731 51.7011 178.781 53.4238 178.122C55.1465 177.438 57.0465 177.096 59.1238 177.096C61.2265 177.096 63.1518 177.438 64.8998 178.122C66.6478 178.806 68.1298 179.832 69.3458 181.2L66.9898 183.556C65.9005 182.492 64.7098 181.719 63.4178 181.238C62.1511 180.731 60.7705 180.478 59.2758 180.478C57.7558 180.478 56.3371 180.731 55.0198 181.238C53.7278 181.745 52.6005 182.454 51.6378 183.366C50.7005 184.278 49.9658 185.367 49.4338 186.634C48.9271 187.875 48.6738 189.231 48.6738 190.7C48.6738 192.144 48.9271 193.499 49.4338 194.766C49.9658 196.007 50.7005 197.097 51.6378 198.034C52.6005 198.946 53.7278 199.655 55.0198 200.162C56.3118 200.669 57.7178 200.922 59.2378 200.922C60.6565 200.922 62.0118 200.707 63.3038 200.276C64.6211 199.82 65.8371 199.073 66.9518 198.034L69.1178 200.922C67.8005 202.037 66.2551 202.885 64.4818 203.468C62.7338 204.025 60.9225 204.304 59.0478 204.304ZM69.1178 200.922L65.4698 200.428V190.548H69.1178V200.922ZM76.1433 204V177.4H79.9433V204H76.1433ZM92.939 204V180.706H83.819V177.4H105.821V180.706H96.701V204H92.939ZM104.346 204L116.392 177.4H120.154L132.238 204H128.248L117.494 179.528H119.014L108.26 204H104.346ZM109.476 197.35L110.502 194.31H125.474L126.576 197.35H109.476ZM135.956 204V177.4H139.756V200.694H154.158V204H135.956ZM175.975 204.304C173.949 204.304 172.011 204 170.161 203.392C168.312 202.759 166.855 201.948 165.791 200.96L167.197 197.996C168.211 198.883 169.503 199.617 171.073 200.2C172.644 200.783 174.278 201.074 175.975 201.074C177.521 201.074 178.775 200.897 179.737 200.542C180.7 200.187 181.409 199.706 181.865 199.098C182.321 198.465 182.549 197.755 182.549 196.97C182.549 196.058 182.245 195.323 181.637 194.766C181.055 194.209 180.282 193.765 179.319 193.436C178.382 193.081 177.343 192.777 176.203 192.524C175.063 192.271 173.911 191.979 172.745 191.65C171.605 191.295 170.554 190.852 169.591 190.32C168.654 189.788 167.894 189.079 167.311 188.192C166.729 187.28 166.437 186.115 166.437 184.696C166.437 183.328 166.792 182.074 167.501 180.934C168.236 179.769 169.351 178.844 170.845 178.16C172.365 177.451 174.291 177.096 176.621 177.096C178.167 177.096 179.699 177.299 181.219 177.704C182.739 178.109 184.057 178.692 185.171 179.452L183.917 182.492C182.777 181.732 181.574 181.187 180.307 180.858C179.041 180.503 177.812 180.326 176.621 180.326C175.127 180.326 173.898 180.516 172.935 180.896C171.973 181.276 171.263 181.783 170.807 182.416C170.377 183.049 170.161 183.759 170.161 184.544C170.161 185.481 170.453 186.229 171.035 186.786C171.643 187.343 172.416 187.787 173.353 188.116C174.316 188.445 175.367 188.749 176.507 189.028C177.647 189.281 178.787 189.573 179.927 189.902C181.093 190.231 182.144 190.662 183.081 191.194C184.044 191.726 184.817 192.435 185.399 193.322C185.982 194.209 186.273 195.349 186.273 196.742C186.273 198.085 185.906 199.339 185.171 200.504C184.437 201.644 183.297 202.569 181.751 203.278C180.231 203.962 178.306 204.304 175.975 204.304ZM191.575 204V177.4H210.347V180.706H195.375V200.694H210.879V204H191.575ZM195.033 192.106V188.876H208.713V192.106H195.033ZM216.782 204V177.4H227.156C230.601 177.4 233.312 178.223 235.288 179.87C237.264 181.491 238.252 183.759 238.252 186.672C238.252 188.597 237.809 190.257 236.922 191.65C236.035 193.018 234.769 194.069 233.122 194.804C231.475 195.539 229.487 195.906 227.156 195.906H218.872L220.582 194.158V204H216.782ZM234.566 204L227.802 194.348H231.868L238.708 204H234.566ZM220.582 194.538L218.872 192.676H227.042C229.474 192.676 231.311 192.157 232.552 191.118C233.819 190.054 234.452 188.572 234.452 186.672C234.452 184.772 233.819 183.303 232.552 182.264C231.311 181.225 229.474 180.706 227.042 180.706H218.872L220.582 178.806V194.538ZM251.817 204L240.113 177.4H244.217L254.971 201.948H252.615L263.445 177.4H267.245L255.579 204H251.817ZM270.387 204V177.4H274.187V204H270.387ZM293.795 204.304C291.768 204.304 289.894 203.975 288.171 203.316C286.474 202.632 284.992 201.682 283.725 200.466C282.484 199.225 281.508 197.781 280.799 196.134C280.09 194.487 279.735 192.676 279.735 190.7C279.735 188.724 280.09 186.913 280.799 185.266C281.508 183.619 282.496 182.188 283.763 180.972C285.03 179.731 286.512 178.781 288.209 178.122C289.932 177.438 291.806 177.096 293.833 177.096C295.885 177.096 297.772 177.451 299.495 178.16C301.243 178.844 302.725 179.87 303.941 181.238L301.471 183.632C300.458 182.568 299.318 181.783 298.051 181.276C296.784 180.744 295.429 180.478 293.985 180.478C292.49 180.478 291.097 180.731 289.805 181.238C288.538 181.745 287.436 182.454 286.499 183.366C285.562 184.278 284.827 185.367 284.295 186.634C283.788 187.875 283.535 189.231 283.535 190.7C283.535 192.169 283.788 193.537 284.295 194.804C284.827 196.045 285.562 197.122 286.499 198.034C287.436 198.946 288.538 199.655 289.805 200.162C291.097 200.669 292.49 200.922 293.985 200.922C295.429 200.922 296.784 200.669 298.051 200.162C299.318 199.63 300.458 198.819 301.471 197.73L303.941 200.124C302.725 201.492 301.243 202.531 299.495 203.24C297.772 203.949 295.872 204.304 293.795 204.304ZM308.741 204V177.4H327.513V180.706H312.541V200.694H328.045V204H308.741ZM312.199 192.106V188.876H325.879V192.106H312.199ZM343.903 204V177.4H354.277C357.722 177.4 360.433 178.223 362.409 179.87C364.385 181.491 365.373 183.759 365.373 186.672C365.373 188.597 364.93 190.257 364.043 191.65C363.156 193.018 361.89 194.069 360.243 194.804C358.596 195.539 356.608 195.906 354.277 195.906H345.993L347.703 194.158V204H343.903ZM361.687 204L354.923 194.348H358.989L365.829 204H361.687ZM347.703 194.538L345.993 192.676H354.163C356.595 192.676 358.432 192.157 359.673 191.118C360.94 190.054 361.573 188.572 361.573 186.672C361.573 184.772 360.94 183.303 359.673 182.264C358.432 181.225 356.595 180.706 354.163 180.706H345.993L347.703 178.806V194.538ZM371.262 204V177.4H390.034V180.706H375.062V200.694H390.566V204H371.262ZM374.72 192.106V188.876H388.4V192.106H374.72ZM396.469 204V177.4H406.843C409.174 177.4 411.163 177.767 412.809 178.502C414.456 179.237 415.723 180.301 416.609 181.694C417.496 183.087 417.939 184.747 417.939 186.672C417.939 188.597 417.496 190.257 416.609 191.65C415.723 193.018 414.456 194.082 412.809 194.842C411.163 195.577 409.174 195.944 406.843 195.944H398.559L400.269 194.158V204H396.469ZM400.269 194.538L398.559 192.638H406.729C409.161 192.638 410.998 192.119 412.239 191.08C413.506 190.041 414.139 188.572 414.139 186.672C414.139 184.772 413.506 183.303 412.239 182.264C410.998 181.225 409.161 180.706 406.729 180.706H398.559L400.269 178.806V194.538ZM435.651 204.304C433.625 204.304 431.737 203.962 429.989 203.278C428.267 202.594 426.772 201.644 425.505 200.428C424.239 199.187 423.251 197.743 422.541 196.096C421.832 194.449 421.477 192.651 421.477 190.7C421.477 188.749 421.832 186.951 422.541 185.304C423.251 183.657 424.239 182.226 425.505 181.01C426.772 179.769 428.267 178.806 429.989 178.122C431.712 177.438 433.599 177.096 435.651 177.096C437.678 177.096 439.54 177.438 441.237 178.122C442.96 178.781 444.455 179.731 445.721 180.972C447.013 182.188 448.001 183.619 448.685 185.266C449.395 186.913 449.749 188.724 449.749 190.7C449.749 192.676 449.395 194.487 448.685 196.134C448.001 197.781 447.013 199.225 445.721 200.466C444.455 201.682 442.96 202.632 441.237 203.316C439.54 203.975 437.678 204.304 435.651 204.304ZM435.651 200.922C437.121 200.922 438.476 200.669 439.717 200.162C440.984 199.655 442.073 198.946 442.985 198.034C443.923 197.097 444.645 196.007 445.151 194.766C445.683 193.525 445.949 192.169 445.949 190.7C445.949 189.231 445.683 187.875 445.151 186.634C444.645 185.393 443.923 184.316 442.985 183.404C442.073 182.467 440.984 181.745 439.717 181.238C438.476 180.731 437.121 180.478 435.651 180.478C434.157 180.478 432.776 180.731 431.509 181.238C430.268 181.745 429.179 182.467 428.241 183.404C427.304 184.316 426.569 185.393 426.037 186.634C425.531 187.875 425.277 189.231 425.277 190.7C425.277 192.169 425.531 193.525 426.037 194.766C426.569 196.007 427.304 197.097 428.241 198.034C429.179 198.946 430.268 199.655 431.509 200.162C432.776 200.669 434.157 200.922 435.651 200.922ZM455.307 204V177.4H465.681C469.127 177.4 471.837 178.223 473.813 179.87C475.789 181.491 476.777 183.759 476.777 186.672C476.777 188.597 476.334 190.257 475.447 191.65C474.561 193.018 473.294 194.069 471.647 194.804C470.001 195.539 468.012 195.906 465.681 195.906H457.397L459.107 194.158V204H455.307ZM473.091 204L466.327 194.348H470.393L477.233 204H473.091ZM459.107 194.538L457.397 192.676H465.567C467.999 192.676 469.836 192.157 471.077 191.118C472.344 190.054 472.977 188.572 472.977 186.672C472.977 184.772 472.344 183.303 471.077 182.264C469.836 181.225 467.999 180.706 465.567 180.706H457.397L459.107 178.806V194.538ZM487.578 204V180.706H478.458V177.4H500.46V180.706H491.34V204H487.578Z" fill="black"/>
<line x1="4" y1="146" x2="497" y2="146" stroke="black" stroke-width="4"/>
<path d="M154.894 116V3.99999H202.094C214.04 3.99999 224.547 6.34666 233.614 11.04C242.787 15.7333 249.88 22.2933 254.894 30.72C260.014 39.1467 262.574 48.9067 262.574 60C262.574 71.0933 260.014 80.8533 254.894 89.28C249.88 97.7067 242.787 104.267 233.614 108.96C224.547 113.653 214.04 116 202.094 116H154.894ZM170.894 102.08H201.134C210.414 102.08 218.414 100.32 225.134 96.8C231.96 93.28 237.24 88.3733 240.974 82.08C244.707 75.68 246.574 68.32 246.574 60C246.574 51.5733 244.707 44.2133 240.974 37.92C237.24 31.6267 231.96 26.72 225.134 23.2C218.414 19.68 210.414 17.92 201.134 17.92H170.894V102.08ZM319.721 117.28C311.188 117.28 303.028 116 295.241 113.44C287.455 110.773 281.321 107.36 276.841 103.2L282.761 90.72C287.028 94.4533 292.468 97.5467 299.081 100C305.695 102.453 312.575 103.68 319.721 103.68C326.228 103.68 331.508 102.933 335.561 101.44C339.615 99.9467 342.601 97.92 344.521 95.36C346.441 92.6933 347.401 89.7067 347.401 86.4C347.401 82.56 346.121 79.4667 343.561 77.12C341.108 74.7733 337.855 72.9067 333.801 71.52C329.855 70.0267 325.481 68.7467 320.681 67.68C315.881 66.6133 311.028 65.3867 306.121 64C301.321 62.5067 296.895 60.64 292.841 58.4C288.895 56.16 285.695 53.1733 283.241 49.44C280.788 45.6 279.561 40.6933 279.561 34.72C279.561 28.96 281.055 23.68 284.041 18.88C287.135 13.9733 291.828 10.08 298.121 7.2C304.521 4.21333 312.628 2.72 322.441 2.72C328.948 2.72 335.401 3.57333 341.801 5.27999C348.201 6.98666 353.748 9.43999 358.441 12.64L353.161 25.44C348.361 22.24 343.295 19.9467 337.961 18.56C332.628 17.0667 327.455 16.32 322.441 16.32C316.148 16.32 310.975 17.12 306.921 18.72C302.868 20.32 299.881 22.4533 297.961 25.12C296.148 27.7867 295.241 30.7733 295.241 34.08C295.241 38.0267 296.468 41.1733 298.921 43.52C301.481 45.8667 304.735 47.7333 308.681 49.12C312.735 50.5067 317.161 51.7867 321.961 52.96C326.761 54.0267 331.561 55.2533 336.361 56.64C341.268 58.0267 345.695 59.84 349.641 62.08C353.695 64.32 356.948 67.3067 359.401 71.04C361.855 74.7733 363.081 79.5733 363.081 85.44C363.081 91.0933 361.535 96.3733 358.441 101.28C355.348 106.08 350.548 109.973 344.041 112.96C337.641 115.84 329.535 117.28 319.721 117.28ZM386.456 116V3.99999H430.136C444.643 3.99999 456.056 7.46666 464.376 14.4C472.696 21.2267 476.856 30.7733 476.856 43.04C476.856 51.1467 474.99 58.1333 471.256 64C467.523 69.76 462.19 74.1867 455.256 77.28C448.323 80.3733 439.95 81.92 430.136 81.92H395.256L402.456 74.56V116H386.456ZM461.336 116L432.856 75.36H449.976L478.776 116H461.336ZM402.456 76.16L395.256 68.32H429.656C439.896 68.32 447.63 66.1333 452.856 61.76C458.19 57.28 460.856 51.04 460.856 43.04C460.856 35.04 458.19 28.8533 452.856 24.48C447.63 20.1067 439.896 17.92 429.656 17.92H395.256L402.456 9.91999V76.16Z" fill="black"/>
<path d="M26.9237 30.368H15.9479C15.3424 30.368 14.8882 29.9148 14.8882 29.3104V17.3745C14.8882 16.7702 15.3424 16.3169 15.9479 16.3169H26.9994C27.6049 16.3169 28.0591 16.7702 28.0591 17.3745V29.3104C28.0591 29.9148 27.5292 30.368 26.9237 30.368Z" fill="#E30613" stroke="#E30613" stroke-miterlimit="10"/>
<path d="M51.146 28.8572H33.7362C33.1306 28.8572 32.6765 28.4039 32.6765 27.7996V11.331C32.6765 10.7267 33.1306 10.2734 33.7362 10.2734H51.146C51.7515 10.2734 52.2057 10.7267 52.2057 11.331V27.7996C52.2057 28.4039 51.7515 28.8572 51.146 28.8572Z" fill="#E30613" stroke="#E30613" stroke-miterlimit="10"/>
<path d="M50.3134 80.5291H33.282C32.6765 80.5291 32.2223 80.0759 32.2223 79.4715V62.4742C32.2223 61.8698 32.6765 61.4166 33.282 61.4166H50.3134C50.9189 61.4166 51.3731 61.8698 51.3731 62.4742V79.4715C51.3731 80.0003 50.9189 80.5291 50.3134 80.5291Z" fill="#E30613" stroke="#E30613" stroke-miterlimit="10"/>
<path d="M67.7231 28.1017H56.6717C56.0661 28.1017 55.612 27.6485 55.612 27.0441V14.9571C55.612 14.3528 56.0661 13.8995 56.6717 13.8995H67.7231C68.3287 13.8995 68.7829 14.3528 68.7829 14.9571V27.0441C68.7829 27.6485 68.3287 28.1017 67.7231 28.1017Z" fill="#E30613" stroke="#E30613" stroke-miterlimit="10"/>
<path d="M72.4919 16.3169H67.7231C67.1176 16.3169 66.6634 15.8636 66.6634 15.2593V10.5C66.6634 9.89568 67.1176 9.44241 67.7231 9.44241H72.4919C73.0974 9.44241 73.5516 9.89568 73.5516 10.5V15.2593C73.6273 15.7881 73.0974 16.3169 72.4919 16.3169Z" fill="#E30613" stroke="#E30613" stroke-miterlimit="10"/>
<path d="M19.884 66.5535H15.8722C15.2667 66.5535 14.8125 66.1002 14.8125 65.4959V56.2795C14.8125 55.6752 15.2667 55.2219 15.8722 55.2219H19.884C20.4896 55.2219 20.9438 55.6752 20.9438 56.2795V65.4203C20.9438 66.0247 20.4896 66.5535 19.884 66.5535Z" fill="#E30613" stroke="#E30613" stroke-miterlimit="10"/>
<path d="M26.6209 87.1769H22.6091C22.0035 87.1769 21.5493 86.7237 21.5493 86.1193V78.4894C21.5493 77.8851 22.0035 77.4318 22.6091 77.4318H26.6209C27.2265 77.4318 27.6806 77.8851 27.6806 78.4894V86.1193C27.6806 86.7237 27.1508 87.1769 26.6209 87.1769Z" fill="#E30613" stroke="#E30613" stroke-miterlimit="10"/>
<path d="M125.857 21.7561H107.993C107.387 21.7561 106.933 21.3028 106.933 20.6984V2.87011C106.933 2.26576 107.387 1.8125 107.993 1.8125H125.857C126.462 1.8125 126.916 2.26576 126.916 2.87011V20.6984C126.992 21.3028 126.462 21.7561 125.857 21.7561Z" fill="#E30613" stroke="#E30613" stroke-miterlimit="10"/>
<path d="M110.869 59.5279H102.467C101.862 59.5279 101.407 59.0747 101.407 58.4703V49.0273C101.407 48.423 101.862 47.9697 102.467 47.9697H110.869C111.475 47.9697 111.929 48.423 111.929 49.0273V58.3948C111.929 58.9991 111.475 59.5279 110.869 59.5279Z" fill="#E30613" stroke="#E30613" stroke-miterlimit="10"/>
<path d="M97.3198 20.3963H90.81C90.2045 20.3963 89.7503 19.943 89.7503 19.3386V13.2196C89.7503 12.6152 90.2045 12.162 90.81 12.162H97.3198C97.9253 12.162 98.3795 12.6152 98.3795 13.2196V19.3386C98.3795 19.943 97.9253 20.3963 97.3198 20.3963Z" fill="#E30613" stroke="#E30613" stroke-miterlimit="10"/>
<path d="M55.612 58.2437H51.0703C50.4647 58.2437 50.0106 57.7905 50.0106 57.1861V53.7866C50.0106 53.1823 50.4647 52.729 51.0703 52.729H55.612C56.2175 52.729 56.6717 53.1823 56.6717 53.7866V57.1861C56.6717 57.7905 56.2175 58.2437 55.612 58.2437Z" fill="#E30613" stroke="#E30613" stroke-miterlimit="10"/>
<path d="M27.6806 104.174H22.382C21.7764 104.174 21.3222 103.721 21.3222 103.117V92.9938C21.3222 92.3895 21.7764 91.9362 22.382 91.9362H27.6806C28.2862 91.9362 28.7403 92.3895 28.7403 92.9938V103.117C28.7403 103.646 28.2105 104.174 27.6806 104.174Z" fill="#E30613" stroke="#E30613" stroke-miterlimit="10"/>
<path d="M66.285 113.013H55.0821C54.4766 113.013 54.0224 112.56 54.0224 111.955V100.624C54.0224 100.019 54.4766 99.5661 55.0821 99.5661H66.285C66.8905 99.5661 67.3447 100.019 67.3447 100.624V111.955C67.3447 112.56 66.8905 113.013 66.285 113.013Z" fill="#E30613" stroke="#E30613" stroke-miterlimit="10"/>
<path d="M114.578 108.178H99.9691C99.3636 108.178 98.9094 107.725 98.9094 107.121V92.5406C98.9094 91.9362 99.3636 91.483 99.9691 91.483H114.578C115.184 91.483 115.638 91.9362 115.638 92.5406V107.121C115.638 107.725 115.184 108.178 114.578 108.178Z" fill="#E30613" stroke="#E30613" stroke-miterlimit="10"/>
<path d="M72.4919 79.0182H63.2571C62.6516 79.0182 62.1974 78.565 62.1974 77.9606V74.7878C62.1974 74.1834 62.6516 73.7302 63.2571 73.7302H72.4919C73.0974 73.7302 73.5516 74.1834 73.5516 74.7878V77.9606C73.6273 78.565 73.0974 79.0182 72.4919 79.0182Z" fill="#E30613" stroke="#E30613" stroke-miterlimit="10"/>
<path d="M118.968 77.9606H112.686C112.08 77.9606 111.626 77.5074 111.626 76.903V70.6329C111.626 70.0285 112.08 69.5753 112.686 69.5753H118.968C119.574 69.5753 120.028 70.0285 120.028 70.6329V76.903C120.028 77.4318 119.574 77.9606 118.968 77.9606Z" fill="#E30613" stroke="#E30613" stroke-miterlimit="10"/>
<path d="M16.2507 1.8125H15.4938C15.1153 1.8125 14.8125 2.11468 14.8125 2.49239V37.2425C14.8125 37.6203 15.1153 37.9224 15.4938 37.9224H16.2507C16.6292 37.9224 16.932 37.6203 16.932 37.2425V2.49239C16.932 2.11468 16.6292 1.8125 16.2507 1.8125Z" fill="#E30613" stroke="#E30613" stroke-miterlimit="10"/>
<path d="M16.2507 2.49239V3.24783C16.2507 3.62555 16.5535 3.92773 16.9319 3.92773H50.389C50.7675 3.92773 51.0703 3.62555 51.0703 3.24783V2.49239C51.0703 2.11468 50.7675 1.8125 50.389 1.8125H17.0076C16.5535 1.8125 16.2507 2.11468 16.2507 2.49239Z" fill="#E30613" stroke="#E30613" stroke-miterlimit="10"/>
<path d="M34.1147 3.24783H33.3577C32.9792 3.24783 32.6765 3.55001 32.6765 3.92773V10.9533C32.6765 11.331 32.9792 11.6332 33.3577 11.6332H34.1147C34.4931 11.6332 34.7959 11.331 34.7959 10.9533V3.92773C34.7959 3.55001 34.4931 3.24783 34.1147 3.24783Z" fill="#E30613" stroke="#E30613" stroke-miterlimit="10"/>
<path d="M51.5245 1.8125H50.7675C50.3891 1.8125 50.0863 2.11468 50.0863 2.49239V11.4066C50.0863 11.7843 50.3891 12.0865 50.7675 12.0865H51.5245C51.9029 12.0865 52.2057 11.7843 52.2057 11.4066V2.49239C52.2057 2.11468 51.9029 1.8125 51.5245 1.8125Z" fill="#E30613" stroke="#E30613" stroke-miterlimit="10"/>
<path d="M80.5912 2.19022H79.8343C79.4558 2.19022 79.153 2.49239 79.153 2.87011V41.3974C79.153 41.7752 79.4558 42.0773 79.8343 42.0773H80.5912C80.9697 42.0773 81.2725 41.7752 81.2725 41.3974V2.87011C81.2725 2.49239 80.9697 2.19022 80.5912 2.19022Z" fill="#E30613" stroke="#E30613" stroke-miterlimit="10"/>
<path d="M51.146 2.49239V3.24783C51.146 3.62555 51.4488 3.92773 51.8273 3.92773H125.781C126.159 3.92773 126.462 3.62555 126.462 3.24783V2.49239C126.462 2.11468 126.159 1.8125 125.781 1.8125H51.8273C51.4488 1.8125 51.146 2.11468 51.146 2.49239Z" fill="#E30613" stroke="#E30613" stroke-miterlimit="10"/>
<path d="M79.3801 31.5012V32.2566C79.3801 32.6344 79.6829 32.9365 80.0614 32.9365H94.1406C94.5191 32.9365 94.8219 32.6344 94.8219 32.2566V31.5012C94.8219 31.1235 94.5191 30.8213 94.1406 30.8213H80.1371C79.7586 30.7458 79.3801 31.1235 79.3801 31.5012Z" fill="#E30613" stroke="#E30613" stroke-miterlimit="10"/>
<path d="M93.6864 32.9365H94.4434C94.8219 32.9365 95.1246 32.6344 95.1246 32.2566V3.55001C95.1246 3.17229 94.8219 2.87012 94.4434 2.87012H93.6864C93.308 2.87012 93.0052 3.17229 93.0052 3.55001V32.1811C93.0052 32.6344 93.308 32.9365 93.6864 32.9365Z" fill="#E30613" stroke="#E30613" stroke-miterlimit="10"/>
<path d="M110.036 31.5012V32.2566C110.036 32.6344 110.339 32.9365 110.718 32.9365H126.235C126.614 32.9365 126.916 32.6344 126.916 32.2566V31.5012C126.916 31.1235 126.614 30.8213 126.235 30.8213H110.718C110.339 30.7458 110.036 31.1235 110.036 31.5012Z" fill="#E30613" stroke="#E30613" stroke-miterlimit="10"/>
<path d="M111.475 20.3207H110.718C110.339 20.3207 110.036 20.6229 110.036 21.0006V31.1235C110.036 31.5012 110.339 31.8034 110.718 31.8034H111.475C111.853 31.8034 112.156 31.5012 112.156 31.1235V21.0761C112.156 20.6984 111.853 20.3207 111.475 20.3207Z" fill="#E30613" stroke="#E30613" stroke-miterlimit="10"/>
<path d="M42.8195 27.2708H42.0626C41.6841 27.2708 41.3813 27.5729 41.3813 27.9506V112.258C41.3813 112.635 41.6841 112.937 42.0626 112.937H42.8195C43.198 112.937 43.5008 112.635 43.5008 112.258V28.0262C43.5008 27.6485 43.198 27.2708 42.8195 27.2708Z" fill="#E30613" stroke="#E30613" stroke-miterlimit="10"/>
<path d="M79.0773 40.5665V41.3219C79.0773 41.6996 79.3801 42.0018 79.7586 42.0018H125.175C125.554 42.0018 125.857 41.6996 125.857 41.3219V40.5665C125.857 40.1887 125.554 39.8866 125.175 39.8866H79.7586C79.3801 39.8866 79.0773 40.1887 79.0773 40.5665Z" fill="#E30613" stroke="#E30613" stroke-miterlimit="10"/>
<path d="M66.1335 86.1949V86.9503C66.1335 87.3281 66.4363 87.6302 66.8148 87.6302H125.175C125.554 87.6302 125.857 87.3281 125.857 86.9503V86.1949C125.857 85.8172 125.554 85.515 125.175 85.515H66.8148C66.4363 85.515 66.1335 85.8172 66.1335 86.1949Z" fill="#E30613" stroke="#E30613" stroke-miterlimit="10"/>
<path d="M65.9065 105.307H66.6634C67.0419 105.307 67.3447 105.005 67.3447 104.628V86.1949C67.3447 85.8172 67.0419 85.515 66.6634 85.515H65.9065C65.528 85.515 65.2252 85.8172 65.2252 86.1949V104.628C65.2252 105.005 65.528 105.307 65.9065 105.307Z" fill="#E30613" stroke="#E30613" stroke-miterlimit="10"/>
<path d="M87.0253 111.955H87.7823C88.1608 111.955 88.4635 111.653 88.4635 111.275V42.7573C88.4635 42.3795 88.1608 42.0774 87.7823 42.0774H87.0253C86.6469 42.0774 86.3441 42.3795 86.3441 42.7573V111.351C86.3441 111.653 86.6469 111.955 87.0253 111.955Z" fill="#E30613" stroke="#E30613" stroke-miterlimit="10"/>
<path d="M62.8786 75.5432H63.6356C64.0141 75.5432 64.3168 75.241 64.3168 74.8633V24.9289C64.3168 24.5512 64.0141 24.249 63.6356 24.249H62.8786C62.5002 24.249 62.1974 24.5512 62.1974 24.9289V74.8633C62.1974 75.241 62.5002 75.5432 62.8786 75.5432Z" fill="#E30613" stroke="#E30613" stroke-miterlimit="10"/>
<path d="M74.7628 53.3334V54.0888C74.7628 54.4665 75.0655 54.7687 75.444 54.7687H125.175C125.554 54.7687 125.857 54.4665 125.857 54.0888V53.3334C125.857 52.9556 125.554 52.6535 125.175 52.6535H75.444C75.0655 52.6535 74.7628 52.9556 74.7628 53.3334Z" fill="#E30613" stroke="#E30613" stroke-miterlimit="10"/>
<path d="M51.5245 19.2631H50.7675C50.3891 19.2631 50.0863 19.5653 50.0863 19.943V43.9659C50.0863 44.3437 50.3891 44.6458 50.7675 44.6458H51.5245C51.9029 44.6458 52.2057 44.3437 52.2057 43.9659V19.943C52.2057 19.5653 51.9029 19.2631 51.5245 19.2631Z" fill="#E30613" stroke="#E30613" stroke-miterlimit="10"/>
<path d="M75.8982 54.391L76.201 53.6355C76.3524 53.2578 76.201 52.8801 75.8225 52.729L51.2974 42.6817C50.9189 42.5306 50.5404 42.6817 50.389 43.0594L50.0863 43.8148C49.9349 44.1926 50.0863 44.5703 50.4647 44.7214L74.9899 54.7687C75.3683 54.8442 75.7468 54.6931 75.8982 54.391Z" fill="#E30613" stroke="#E30613" stroke-miterlimit="10"/>
<path d="M15.4938 113.013H16.2507C16.6292 113.013 16.932 112.711 16.932 112.333V63.4562C16.932 63.0785 16.6292 62.7763 16.2507 62.7763H15.4938C15.1153 62.7763 14.8125 63.0785 14.8125 63.4562V112.333C14.8125 112.711 15.1153 113.013 15.4938 113.013Z" fill="#E30613" stroke="#E30613" stroke-miterlimit="10"/>
<path d="M24.9556 92.5406V93.2961C24.9556 93.6738 25.2584 93.9759 25.6369 93.9759H65.3766C65.7551 93.9759 66.0579 93.6738 66.0579 93.2961V92.5406C66.0579 92.1629 65.7551 91.8607 65.3766 91.8607H25.6369C25.2584 91.8607 24.9556 92.1629 24.9556 92.5406Z" fill="#E30613" stroke="#E30613" stroke-miterlimit="10"/>
<path d="M125.478 114.071H126.235C126.614 114.071 126.916 113.768 126.916 113.391V21.0762C126.916 20.6984 126.614 20.3963 126.235 20.3963H125.478C125.1 20.3963 124.797 20.6984 124.797 21.0762V113.466C124.797 113.768 125.1 114.071 125.478 114.071Z" fill="#E30613" stroke="#E30613" stroke-miterlimit="10"/>
<path d="M14.8125 112.635V113.391C14.8125 113.768 15.1153 114.071 15.4938 114.071H126.084C126.462 114.071 126.765 113.768 126.765 113.391V112.635C126.765 112.258 126.462 111.955 126.084 111.955H15.4938C15.1153 111.955 14.8125 112.258 14.8125 112.635Z" fill="#E30613" stroke="#E30613" stroke-miterlimit="10"/>
<path d="M49.5564 62.0965V62.8519C49.5564 63.2296 49.8592 63.5318 50.2376 63.5318H104.889C105.268 63.5318 105.571 63.2296 105.571 62.8519V62.0965C105.571 61.7187 105.268 61.4166 104.889 61.4166H50.2376C49.8592 61.4166 49.5564 61.7187 49.5564 62.0965Z" fill="#E30613" stroke="#E30613" stroke-miterlimit="10"/>
<path d="M104.965 61.9453H104.208C103.83 61.9453 103.527 62.2475 103.527 62.6252V79.9248C103.527 80.3025 103.83 80.6047 104.208 80.6047H104.965C105.343 80.6047 105.646 80.3025 105.646 79.9248V62.6252C105.646 62.2475 105.343 61.9453 104.965 61.9453Z" fill="#E30613" stroke="#E30613" stroke-miterlimit="10"/>
<path d="M87.4795 79.1693V79.9248C87.4795 80.3025 87.7823 80.6047 88.1607 80.6047H104.132C104.511 80.6047 104.814 80.3025 104.814 79.9248V79.1693C104.814 78.7916 104.511 78.4894 104.132 78.4894H88.1607C87.7823 78.4139 87.4795 78.7161 87.4795 79.1693Z" fill="#E30613" stroke="#E30613" stroke-miterlimit="10"/>
<path d="M34.1147 26.2887H33.3577C32.9792 26.2887 32.6765 26.5909 32.6765 26.9686V40.4154C32.6765 40.7931 32.9792 41.0953 33.3577 41.0953H34.1147C34.4931 41.0953 34.7959 40.7931 34.7959 40.4154V26.9686C34.7959 26.5909 34.4931 26.2887 34.1147 26.2887Z" fill="#E30613" stroke="#E30613" stroke-miterlimit="10"/>
<path d="M33.7362 38.3001V37.5447C33.7362 37.167 33.4334 36.8648 33.0549 36.8648H15.8722C15.4938 36.8648 15.191 37.167 15.191 37.5447V38.3001C15.191 38.6779 15.4938 38.98 15.8722 38.98H32.9792C33.3577 38.98 33.7362 38.6779 33.7362 38.3001Z" fill="#E30613" stroke="#E30613" stroke-miterlimit="10"/>
<path d="M16.2507 36.8648H15.4938C15.1153 36.8648 14.8125 37.167 14.8125 37.5447V55.9018C14.8125 56.2796 15.1153 56.5817 15.4938 56.5817H16.2507C16.6292 56.5817 16.932 56.2796 16.932 55.9018V37.5447C16.932 37.167 16.6292 36.8648 16.2507 36.8648Z" fill="#E30613" stroke="#E30613" stroke-miterlimit="10"/>
<path d="M24.9556 44.117H24.1986C23.8202 44.117 23.5174 44.4192 23.5174 44.7969V78.4139C23.5174 78.7916 23.8202 79.0938 24.1986 79.0938H24.9556C25.3341 79.0938 25.6368 78.7916 25.6368 78.4139V44.7969C25.6368 44.4192 25.3341 44.117 24.9556 44.117Z" fill="#E30613" stroke="#E30613" stroke-miterlimit="10"/>
<path d="M34.7202 40.1887L34.3418 39.5088C34.1904 39.2067 33.7362 39.0556 33.4334 39.2067L23.9716 44.117C23.6688 44.2681 23.5174 44.7214 23.6688 45.0235L24.0473 45.7034C24.1987 46.0056 24.6528 46.1567 24.9556 46.0056L34.4175 41.0953C34.7202 40.9442 34.8716 40.4909 34.7202 40.1887Z" fill="#E30613"/>
<path d="M34.7202 40.1887L34.3418 39.5088C34.1904 39.2067 33.7362 39.0556 33.4334 39.2067L23.9716 44.117C23.6688 44.2681 23.5174 44.7214 23.6688 45.0235L24.0473 45.7034C24.1987 46.0056 24.6528 46.1567 24.9556 46.0056L34.4175 41.0953C34.7202 40.9442 34.8716 40.4909 34.7202 40.1887Z" stroke="#E30613" stroke-miterlimit="10"/>
<path d="M68.7829 12.4642V13.2196C68.7829 13.5973 69.0856 13.8995 69.4641 13.8995H80.2128C80.5912 13.8995 80.894 13.5973 80.894 13.2196V12.4642C80.894 12.0864 80.5912 11.7843 80.2128 11.7843H69.4641C69.0856 11.7843 68.7829 12.0864 68.7829 12.4642Z" fill="#E30613" stroke="#E30613" stroke-miterlimit="10"/>
<path d="M16.2507 60.4345V61.1899C16.2507 61.5676 16.5535 61.8698 16.9319 61.8698H23.8958C24.2743 61.8698 24.5771 61.5676 24.5771 61.1899V60.4345C24.5771 60.0568 24.2743 59.7546 23.8958 59.7546H17.0076C16.6291 59.7546 16.2507 60.0568 16.2507 60.4345Z" fill="#E30613" stroke="#E30613" stroke-miterlimit="10"/>
<path d="M103.451 62.0965V62.8519C103.451 63.2296 103.754 63.5318 104.132 63.5318H125.175C125.554 63.5318 125.857 63.2296 125.857 62.8519V62.0965C125.857 61.7187 125.554 61.4166 125.175 61.4166H104.132C103.83 61.4166 103.451 61.7187 103.451 62.0965Z" fill="#E30613" stroke="#E30613" stroke-miterlimit="10"/>
<path d="M107.69 86.5726H106.933C106.555 86.5726 106.252 86.8748 106.252 87.2525V112.258C106.252 112.635 106.555 112.937 106.933 112.937H107.69C108.068 112.937 108.371 112.635 108.371 112.258V87.3281C108.371 86.9504 108.068 86.5726 107.69 86.5726Z" fill="#E30613" stroke="#E30613" stroke-miterlimit="10"/>
<path d="M66.2849 99.4151V100.17C66.2849 100.548 66.5877 100.85 66.9662 100.85H125.175C125.554 100.85 125.857 100.548 125.857 100.17V99.4151C125.857 99.0373 125.554 98.7352 125.175 98.7352H66.9662C66.5877 98.7352 66.2849 99.0373 66.2849 99.4151Z" fill="#E30613" stroke="#E30613" stroke-miterlimit="10"/>
</svg>
