<?xml version="1.0" encoding="utf-8"?>
<!-- Generator: Adobe Illustrator 23.1.0, SVG Export Plug-In . SVG Version: 6.00 Build 0)  -->
<svg version="1.1" id="Camada_1" xmlns="http://www.w3.org/2000/svg" xmlns:xlink="http://www.w3.org/1999/xlink" x="0px" y="0px"
	 viewBox="0 0 137.7 73.7" style="enable-background:new 0 0 137.7 73.7;" xml:space="preserve">
<style type="text/css">
	.st0{fill:#EC2228;}
</style>
<g>
	<g id="logo_jrc_brasil_v2021_Imagem">
		<path class="st0" d="M68.9,73.7H7.5c-1.8,0-3.5-0.7-4.8-1.9c-1.3-1-2.1-2.4-2.5-4c-0.1-0.5-0.2-1-0.2-1.4C0,46.8,0,27.2,0,7.6
			c0-3.2,2.1-6.1,5.2-7.1C6.2,0.1,7.2,0,8.3,0c40.5,0,81,0,121.6,0c3.1-0.1,5.9,1.6,7.2,4.4c0.4,0.8,0.6,1.8,0.6,2.7
			c0,19.8,0,39.6,0,59.5c0,1.6-0.6,3.1-1.7,4.3c-1.3,1.5-3.1,2.5-5,2.8c-0.2,0-0.4,0-0.7,0L68.9,73.7z M68.9,68.9h60.9
			c0.1,0,0.3,0,0.4,0c1.5-0.1,2.6-1.3,2.7-2.8c0-19.5,0-39,0-58.6c0-0.2,0-0.5-0.1-0.7c-0.3-1.3-1.9-2.1-3.1-2.1H8.3
			c-0.4,0-0.8,0-1.2,0.1C5.7,5.2,4.7,6.4,4.8,7.8c0,19.3,0,38.7,0,58.1c0.1,1.6,1.4,2.9,3,3C28.1,68.9,48.5,68.9,68.9,68.9
			L68.9,68.9z"/>
		<path class="st0" d="M87.3,56h-0.8c-4,0-7.9,0-11.9,0c-0.4,0-0.9-0.2-1.1-0.5c-2.2-3-4.5-6-6.8-9c-1.2-1.5-2.3-3-3.4-4.6
			c-1.7-2.3-0.1-0.1-0.3-0.2v0.7c0,4.3,0,8.7,0,13c0,0.5-0.1,0.6-0.6,0.6c-3,0-6,0-9,0c-0.4,0-0.6-0.1-0.6-0.5c0-12.6,0-25.3,0-37.9
			c0-0.5,0.2-0.5,0.6-0.5c6.9,0,13.8,0,20.7,0c2.4,0,4.7,0.9,6.6,2.3c1.4,1,2.5,2.3,3.3,3.9c0.6,1.3,1.1,2.6,1.2,4
			c0.1,1,0.1,2,0.1,3c0,2.6-1,5.2-2.6,7.2c-1.3,1.5-3,2.7-4.8,3.4c-0.6,0.2-0.6,0.3-0.3,0.8l7.7,11.6C86,54.1,86.6,55,87.3,56z
			 M67.5,25.4h-3.7c-0.2,0-0.4,0-0.4,0.3c0,2.4,0,4.9,0,7.3c0,0.2,0.1,0.3,0.3,0.3c2.6-0.1,5.2,0.2,7.8-0.1c0.8-0.1,1.6-0.5,2-1.2
			c0.6-1.1,0.8-2.3,0.7-3.5c-0.1-1.7-1.5-3.1-3.2-3c-0.1,0-0.1,0-0.2,0C69.6,25.4,68.5,25.4,67.5,25.4z"/>
		<path class="st0" d="M108.7,56.4c-3.2,0.1-6.4-0.6-9.2-2c-1.6-0.8-3.1-1.8-4.4-3.1c-1.8-1.7-3.3-3.7-4.4-6
			c-0.9-1.8-1.5-3.8-1.8-5.8c-0.2-1.4-0.3-2.9-0.2-4.4c0.2-3.1,1.2-6.2,2.8-8.9c0.9-1.5,2-2.9,3.2-4.1c2.4-2.3,5.4-3.9,8.6-4.7
			c2.4-0.6,4.9-0.9,7.4-0.7c2.2,0.1,4.4,0.6,6.4,1.5c2.4,1,4.6,2.6,6.5,4.5c0.9,0.9,0.9,0.9,0,1.8c-1.8,1.8-3.7,3.5-5.6,5.2
			c-0.4,0.3-0.7,0.6-1,1c-0.3,0.3-0.4,0.2-0.7,0c-1.3-1.3-2.9-2.3-4.6-2.9c-2.8-0.9-5.9-0.4-8.1,1.5c-1.8,1.3-3,3.1-3.6,5.2
			c-0.6,2.2-0.3,4.5,0.9,6.5c1.3,2.3,3.5,3.9,6,4.4c3.4,0.7,6.9-0.4,9.3-3c0.3-0.3,0.5-0.4,0.9-0.1c2.2,1.8,4.4,3.5,6.7,5.2l0.6,0.5
			c0.7,0.5,0.7,0.5,0.1,1c-1.9,2.1-4.1,3.8-6.5,5.1c-2,1.1-4.3,1.8-6.6,2.2C110.5,56.5,109.6,56.6,108.7,56.4z"/>
		<path class="st0" d="M34.5,29c0-3.9,0-7.8,0-11.8c0-0.5,0.1-0.6,0.6-0.6c3.3,0,6.7,0,10,0c0.5,0,0.5,0.1,0.5,0.6
			c0,7.7,0,15.3,0,23c0,2.7-0.8,5.4-2.3,7.7c-1.7,2.8-4.2,5-7.1,6.4c-1.7,0.8-3.5,1.3-5.4,1.5c-3,0.4-6,0-8.9-1.1
			c-1.8-0.7-3.4-1.6-4.8-2.8c-1.9-1.5-3.4-3.4-4.4-5.6c-0.7-1.6-1.1-3.3-1.3-5c0-0.5-0.1-0.9-0.1-1.4c0-0.3,0.1-0.4,0.4-0.4
			c3.2,0,6.4,0,9.6,0c0.4,0,0.4,0.3,0.4,0.4c0.3,1.4,0.9,2.6,1.7,3.8c1,1.4,2.6,2.3,4.3,2.3c2,0.2,4-0.6,5.4-2.2
			c0.9-0.9,1.4-2.1,1.4-3.4C34.5,36.7,34.5,32.8,34.5,29z"/>
	</g>
</g>
</svg>
